<?xml version="1.0" encoding="utf-8"?>
<!-- Generator: Adobe Illustrator 23.0.5, SVG Export Plug-In . SVG Version: 6.00 Build 0)  -->
<svg version="1.1" id="Layer_1" xmlns="http://www.w3.org/2000/svg" xmlns:xlink="http://www.w3.org/1999/xlink" x="0px" y="0px"
	 viewBox="0 0 1080 1080" style="enable-background:new 0 0 1080 1080;" xml:space="preserve">
<style type="text/css">
	.st0{fill:#0A2947;}
	.st1{fill:#2C578C;}
	.st2{fill:#092947;}
	.st3{fill:#2B578C;}
</style>
<g>
	<path class="st0" d="M535,613.6c3.2,0.2,6.5,0.2,9.8,0.2c11.6,0,22.9-1,34-2.8 M515.8,662.2c-57.7-6.4-111.2-32.1-152.9-73.7
		c-48.6-48.6-75.3-113.2-75.3-181.9c0-68.7,26.8-133.3,75.3-181.9c48.6-48.6,113.2-75.3,181.9-75.3c68.7,0,133.3,26.8,181.9,75.3
		c20.9,20.9,37.8,44.8,50.3,70.8c1.6,3.3,3.1,6.6,4.5,10l0,0.1c7.1,16.5,12.4,33.8,15.8,51.6v0l0,0.1h0h-41H746
		c-4.5-18.3-11.4-35.7-20.4-51.8H737c-1.8-3.4-3.7-6.7-5.6-10c-36.8-61.6-103.2-103.5-179.5-106c-2.4-0.1-4.7-0.1-7.1-0.1
		c-6,0-12,0.3-17.9,0.7l-14.9,1.8c-8.5,1.3-16.9,3.1-25.1,5.4c-91.8,25.4-159.3,109.6-159.3,209.4c0,112.5,85.9,205.3,195.5,216.2
		 M587.3,619.6c99.5-19.8,174.7-107.8,174.7-213c0-13.4-1.2-26.6-3.6-39.3H799c2,12.9,3,26,3,39.3c0,68.7-26.8,133.3-75.3,181.9
		c-40.3,40.3-91.6,65.6-147.2,73 M495.8,203.8l-0.3,1.5c5.8-1.4,11.7-2.6,17.6-3.5L495.8,203.8z M527.8,200.1c4-0.3,8-0.5,12-0.6
		l0.2-0.8L527.8,200.1z M527.8,200.1c4-0.3,8-0.5,12-0.6l0.2-0.8L527.8,200.1z M495.8,203.8l-0.3,1.5c5.8-1.4,11.7-2.6,17.6-3.5
		L495.8,203.8z M495.8,203.8l-0.3,1.5c5.8-1.4,11.7-2.6,17.6-3.5L495.8,203.8z M527.8,200.1c4-0.3,8-0.5,12-0.6l0.2-0.8L527.8,200.1
		z M527.8,200.1c4-0.3,8-0.5,12-0.6l0.2-0.8L527.8,200.1z M495.8,203.8l-0.3,1.5c5.8-1.4,11.7-2.6,17.6-3.5L495.8,203.8z
		 M495.8,203.8l-0.3,1.5c5.8-1.4,11.7-2.6,17.6-3.5L495.8,203.8z M527.8,200.1c4-0.3,8-0.5,12-0.6l0.2-0.8L527.8,200.1z
		 M527.8,200.1c4-0.3,8-0.5,12-0.6l0.2-0.8L527.8,200.1z M495.8,203.8l-0.3,1.5c5.8-1.4,11.7-2.6,17.6-3.5L495.8,203.8z
		 M495.8,203.8l-0.3,1.5c5.8-1.4,11.7-2.6,17.6-3.5L495.8,203.8z M527.8,200.1c4-0.3,8-0.5,12-0.6l0.2-0.8L527.8,200.1z
		 M527.8,200.1c4-0.3,8-0.5,12-0.6l0.2-0.8L527.8,200.1z M495.8,203.8l-0.3,1.5c5.8-1.4,11.7-2.6,17.6-3.5L495.8,203.8z
		 M495.8,203.8l-0.3,1.5c5.8-1.4,11.7-2.6,17.6-3.5L495.8,203.8z M527.8,200.1c4-0.3,8-0.5,12-0.6l0.2-0.8L527.8,200.1z
		 M527.8,200.1c4-0.3,8-0.5,12-0.6l0.2-0.8L527.8,200.1z M495.8,203.8l-0.3,1.5c5.8-1.4,11.7-2.6,17.6-3.5L495.8,203.8z
		 M495.8,203.8l-0.3,1.5c5.8-1.4,11.7-2.6,17.6-3.5L495.8,203.8z M527.8,200.1c4-0.3,8-0.5,12-0.6l0.2-0.8L527.8,200.1z
		 M495.8,203.8l-0.3,1.5c5.8-1.4,11.7-2.6,17.6-3.5L495.8,203.8z M527.8,200.1c4-0.3,8-0.5,12-0.6l0.2-0.8L527.8,200.1z
		 M527.8,200.1c4-0.3,8-0.5,12-0.6l0.2-0.8L527.8,200.1z M495.8,203.8l-0.3,1.5c5.8-1.4,11.7-2.6,17.6-3.5L495.8,203.8z
		 M495.8,203.8l-0.3,1.5c5.8-1.4,11.7-2.6,17.6-3.5L495.8,203.8z M527.8,200.1c4-0.3,8-0.5,12-0.6l0.2-0.8L527.8,200.1z
		 M527.8,200.1c4-0.3,8-0.5,12-0.6l0.2-0.8L527.8,200.1z M495.8,203.8l-0.3,1.5c5.8-1.4,11.7-2.6,17.6-3.5L495.8,203.8z
		 M495.8,203.8l-0.3,1.5c5.8-1.4,11.7-2.6,17.6-3.5L495.8,203.8z M527.8,200.1c4-0.3,8-0.5,12-0.6l0.2-0.8L527.8,200.1z
		 M527.8,200.1c4-0.3,8-0.5,12-0.6l0.2-0.8L527.8,200.1z M495.8,203.8l-0.3,1.5c5.8-1.4,11.7-2.6,17.6-3.5L495.8,203.8z
		 M495.8,203.8l-0.3,1.5c5.8-1.4,11.7-2.6,17.6-3.5L495.8,203.8z M527.8,200.1c4-0.3,8-0.5,12-0.6l0.2-0.8L527.8,200.1z
		 M527.8,200.1c4-0.3,8-0.5,12-0.6l0.2-0.8L527.8,200.1z M495.8,203.8l-0.3,1.5c5.8-1.4,11.7-2.6,17.6-3.5L495.8,203.8z
		 M495.8,203.8l-0.3,1.5c5.8-1.4,11.7-2.6,17.6-3.5L495.8,203.8z M527.8,200.1c4-0.3,8-0.5,12-0.6l0.2-0.8L527.8,200.1z
		 M527.8,200.1c4-0.3,8-0.5,12-0.6l0.2-0.8L527.8,200.1z M495.8,203.8l-0.3,1.5c5.8-1.4,11.7-2.6,17.6-3.5L495.8,203.8z
		 M495.8,203.8l-0.3,1.5c5.8-1.4,11.7-2.6,17.6-3.5L495.8,203.8z M527.8,200.1c4-0.3,8-0.5,12-0.6l0.2-0.8L527.8,200.1z
		 M527.8,200.1c4-0.3,8-0.5,12-0.6l0.2-0.8L527.8,200.1z M495.8,203.8l-0.3,1.5c5.8-1.4,11.7-2.6,17.6-3.5L495.8,203.8z"/>
	<path class="st1" d="M799,367.2h-40.6c2.3,12.8,3.6,25.9,3.6,39.3c0,105.2-75.2,193.2-174.7,213c-3.5,0.7-7,1.3-10.5,1.8
		c-10.5,1.6-21.2,2.4-32,2.4c-3.9,0-7.8-0.1-11.6-0.3l-7.4,39.6c6.3,0.5,12.6,0.7,19,0.7c11.7,0,23.3-0.8,34.7-2.3
		c55.5-7.4,106.9-32.7,147.2-73c48.6-48.6,75.3-113.2,75.3-181.9C802,393.3,801,380.1,799,367.2z"/>
	<path class="st2" d="M327.5,406.6c0-99.7,67.5-184,159.3-209.4c8.2-2.3,16.6-4.1,25.1-5.4c4.9-0.8,9.9-1.3,14.9-1.8
		c5.9-0.5,11.8-0.7,17.9-0.7c2.4,0,4.8,0,7.1,0.1c76.2,2.5,142.7,44.4,179.5,106c2,3.3,3.8,6.6,5.6,10c8.5,16.2,15.1,33.5,19.3,51.8
		h41c0,0,0,0,0-0.1v0c-3.5-17.8-8.8-35.1-15.8-51.6l0-0.1c-1.4-3.4-3-6.7-4.5-10c-12.4-25.9-29.3-49.8-50.3-70.8
		c-48.6-48.6-113.2-75.3-181.9-75.3c-68.7,0-133.3,26.8-181.9,75.3c-48.6,48.6-75.3,113.2-75.3,181.9c0,68.7,26.8,133.3,75.3,181.9
		c41.7,41.7,95.2,67.3,152.9,73.7l7.3-39.5C413.4,611.8,327.5,519.1,327.5,406.6z"/>
	<g>
		<path class="st0" d="M797.3,357.2H638.4l9.6-51.8h89c-1.8-3.4-3.7-6.7-5.6-10h45.5c1.6,3.3,3.1,6.6,4.5,10l0,0.1
			C788.5,322.1,793.8,339.4,797.3,357.2L797.3,357.2L797.3,357.2z"/>
		<polygon class="st0" points="797.3,357.2 638.4,357.2 648,305.5 781.4,305.5 781.4,305.5 797.2,357.2 797.2,357.2 		"/>
	</g>
	<g>
		<path class="st1" d="M511.9,191.9c-8.5,1.3-16.9,3.1-25.1,5.4l0.5-2.5L511.9,191.9z"/>
		<path class="st1" d="M544.7,189.4c-6,0-12,0.3-17.9,0.7l25.4-3l-0.4,2.4C549.5,189.4,547.1,189.4,544.7,189.4z"/>
		<path class="st1" d="M576.8,621.4c3.5-0.5,7-1.1,10.5-1.8l-7.9,41.9c-11.4,1.5-23,2.3-34.7,2.3c-6.4,0-12.7-0.2-19-0.7l7.4-39.6
			l1.8-9.9l35.4-190.8h-73.5L481,507.7h-43.2l57.7-302.4l0.3-1.5l17.4-2l0.1,0c4.8-0.7,9.6-1.3,14.5-1.7l12.2-1.4l-0.2,0.8
			l-35.4,185h73.2l15-78.9h43.5L578.7,611L576.8,621.4z"/>
		<path class="st1" d="M592.6,305.5l-15,78.9h-73.2l35.4-185l0.2-0.8l-12.2,1.4l-14.5,1.7l-0.1,0l-17.4,2l-0.3,1.5l-57.7,302.4H481
			l15.9-84.9h73.5L535,613.6l-1.8,9.9l-7.4,39.6l43.3-0.5l7.7-41.1l2-10.4l57.3-305.5H592.6z"/>
	</g>
</g>
<g>
	<path class="st3" d="M222.3,727.9v66.3h64.3v-66.3h38.9v172.6h-38.9v-72.2h-64.3v72.2h-38.9V727.9H222.3z"/>
	<path class="st3" d="M462.2,827.5h-63.5v41h70.9v32H359.8V727.9H466v32h-67.3v35.8h63.5V827.5z"/>
	<path class="st3" d="M496.5,727.9h38.9v139.8H604v32.8H496.5V727.9z"/>
	<path class="st3" d="M627.3,727.9h38.9v139.8h68.6v32.8H627.3V727.9z"/>
	<path class="st3" d="M906.1,812.4c0,56.8-34.1,90.9-84.7,90.9c-51,0-81.2-38.7-81.2-88.1c0-51.7,33.3-90.4,84-90.4
		C877.2,724.8,906.1,764.5,906.1,812.4z M781.4,814.5c0,34.1,15.9,57.9,42,57.9c26.4,0,41.5-25.1,41.5-58.6
		c0-31.2-14.6-57.9-41.5-57.9C796.8,755.8,781.4,780.9,781.4,814.5z"/>
</g>
</svg>
