<?xml version="1.0" encoding="utf-8"?>
<!-- Generator: Adobe Illustrator 23.0.5, SVG Export Plug-In . SVG Version: 6.00 Build 0)  -->
<svg version="1.1" id="Layer_1" xmlns="http://www.w3.org/2000/svg" xmlns:xlink="http://www.w3.org/1999/xlink" x="0px" y="0px"
	 viewBox="0 0 120 120" style="enable-background:new 0 0 120 120;" xml:space="preserve">
<style type="text/css">
	.st0{fill:#FFFFFF;}
	.st1{fill:none;}
	.st2{font-family:'Lato-Regular';}
	.st3{font-size:8.2175px;}
	.st4{fill:#2A286B;}
</style>
<rect x="0" class="st0" width="120" height="120"/>
<path class="st1" d="M14.8,40.8v2.1c0,1.5-1.2,2.8-2.8,2.8H0.5c-1.5,0-2.8-1.2-2.8-2.8v-2.1H14.8z"/>
<path class="st0" d="M100.6,48.2c3.8-3.5,6.3-8.5,6.3-14.1c0-10.6-8.6-19.2-19.2-19.2c-7.8,0-14.5,4.7-17.5,11.4
	c-2.7-1.5-5.8-2.3-9.1-2.3c-3.3,0-6.4,0.8-9.1,2.3c-3-6.7-9.7-11.4-17.5-11.4c-10.6,0-19.2,8.6-19.2,19.2c0,5.6,2.4,10.6,6.3,14.2
	c-8.7,1-15.4,8.4-15.4,17.3v16.1c0,5.5,4.5,10,10,10h16.7c0.5,5.1,4.8,9.1,10,9.1h36.4c5.2,0,9.6-4,10-9.1h16.7
	c5.5,0,9.9-4.4,9.9-9.9V65.5C116,56.6,109.3,49.2,100.6,48.2z M110.5,81.7c0,2.4-2,4.4-4.4,4.4H89.4V74.8c0-9-6.8-16.4-15.4-17.4
	c1.2-1.1,2.3-2.4,3.2-3.8h21.4c6.6,0,11.9,5.3,11.9,11.9V81.7z M79.3,95.3H42.9c-2.5,0-4.6-2.1-4.6-4.6V74.8
	c0-6.7,5.4-12.1,12.1-12.1h21.5c6.7,0,12.1,5.4,12.1,12.1v15.8C84,93.2,81.9,95.3,79.3,95.3z M11.7,81.6V65.6c0-6.6,5.4-12,12-12H45
	c0.9,1.4,2,2.7,3.2,3.8c-8.7,1.1-15.4,8.5-15.4,17.4v11.3H16.2C13.7,86.1,11.7,84.1,11.7,81.6z M47.5,29.7C44.1,33.2,42,38,42,43.2
	c0,0.8,0.1,1.5,0.1,2.3c-2.2,1.4-4.8,2.3-7.6,2.3c-7.6,0-13.7-6.1-13.7-13.7S27,20.4,34.6,20.4C40.6,20.4,45.7,24.3,47.5,29.7z
	 M101.4,34.1c0,7.6-6.1,13.7-13.7,13.7c-2.8,0-5.4-0.8-7.6-2.3c0.1-0.8,0.1-1.5,0.1-2.3c0-5.3-2.1-10-5.6-13.5
	c1.8-5.4,6.9-9.3,13-9.3C95.3,20.4,101.4,26.5,101.4,34.1z M74.8,43.2c0,7.6-6.1,13.7-13.7,13.7s-13.7-6.1-13.7-13.7
	s6.1-13.7,13.7-13.7S74.8,35.7,74.8,43.2z"/>
<text transform="matrix(1 0 0 1 12.8074 108.4794)" class="st0 st2 st3">Vistors Information System</text>
<g>
	<g>
		<g>
			<g>
				<path class="st4" d="M19.7,34.1c0,7.6,6.1,13.7,13.7,13.7c2.8,0,5.4-0.8,7.6-2.3c-0.1-0.8-0.1-1.5-0.1-2.3
					c0-5.3,2.1-10,5.6-13.5c-1.8-5.4-6.9-9.3-13-9.3C25.9,20.4,19.7,26.5,19.7,34.1z"/>
				<path class="st4" d="M31.7,86.1V74.8c0-9,6.8-16.4,15.4-17.4c-1.2-1.1-2.3-2.4-3.2-3.8H22.6c-6.6,0-12,5.4-12,12v16.1
					c0,2.5,2,4.5,4.5,4.5H31.7z"/>
			</g>
			<g>
				<path class="st4" d="M73.6,29.7c3.4,3.5,5.6,8.2,5.6,13.5c0,0.8-0.1,1.5-0.1,2.3c2.2,1.4,4.8,2.3,7.6,2.3
					c7.6,0,13.7-6.1,13.7-13.7s-6.1-13.7-13.7-13.7C80.5,20.4,75.4,24.3,73.6,29.7z"/>
				<path class="st4" d="M97.5,53.6H76.1c-0.9,1.4-2,2.7-3.2,3.8c8.7,1.1,15.4,8.5,15.4,17.4v11.3H105c2.4,0,4.4-2,4.4-4.4V65.5
					C109.4,58.9,104.1,53.6,97.5,53.6z"/>
			</g>
			<g>
				
					<ellipse transform="matrix(0.7071 -0.7071 0.7071 0.7071 -12.9918 55.087)" class="st4" cx="60" cy="43.2" rx="13.7" ry="13.7"/>
				<path class="st4" d="M82.8,74.8c0-6.7-5.4-12.1-12.1-12.1H49.3c-6.7,0-12.1,5.4-12.1,12.1v15.8c0,2.5,2.1,4.6,4.6,4.6h36.4
					c2.5,0,4.6-2.1,4.6-4.6V74.8z"/>
			</g>
		</g>
		<g>
			<path class="st0" d="M43.3,74.7h2.4c0.3,0,0.5,0.1,0.6,0.2c0.2,0.1,0.3,0.3,0.4,0.5l3.7,9.7c0.1,0.3,0.2,0.7,0.4,1
				c0.1,0.4,0.2,0.8,0.3,1.2c0.2-0.8,0.4-1.6,0.6-2.2l3.7-9.7c0.1-0.2,0.2-0.3,0.4-0.5c0.2-0.1,0.4-0.2,0.6-0.2h2.4l-6.4,15.8h-2.7
				L43.3,74.7z"/>
			<path class="st0" d="M63.7,90.6h-3V74.7h3V90.6z"/>
			<path class="st0" d="M75.7,77.6c-0.1,0.2-0.2,0.3-0.3,0.3c-0.1,0.1-0.2,0.1-0.4,0.1s-0.3-0.1-0.5-0.2c-0.2-0.1-0.4-0.2-0.6-0.4
				c-0.2-0.1-0.5-0.3-0.9-0.4C72.7,77,72.3,77,71.9,77c-0.4,0-0.8,0-1.1,0.1c-0.3,0.1-0.6,0.2-0.8,0.4c-0.2,0.2-0.4,0.4-0.5,0.6
				c-0.1,0.2-0.2,0.5-0.2,0.8c0,0.4,0.1,0.7,0.3,0.9c0.2,0.2,0.5,0.5,0.8,0.6c0.3,0.2,0.7,0.3,1.2,0.5c0.4,0.1,0.9,0.3,1.3,0.4
				c0.5,0.2,0.9,0.3,1.3,0.5c0.4,0.2,0.8,0.5,1.2,0.8s0.6,0.7,0.8,1.2c0.2,0.5,0.3,1,0.3,1.7c0,0.7-0.1,1.4-0.4,2
				c-0.2,0.6-0.6,1.2-1.1,1.6c-0.5,0.5-1,0.8-1.7,1.1c-0.7,0.3-1.5,0.4-2.3,0.4c-0.5,0-1,0-1.5-0.1c-0.5-0.1-1-0.2-1.4-0.4
				c-0.4-0.2-0.9-0.4-1.3-0.7c-0.4-0.3-0.7-0.5-1-0.9l0.9-1.4c0.1-0.1,0.2-0.2,0.3-0.3c0.1-0.1,0.2-0.1,0.4-0.1
				c0.2,0,0.4,0.1,0.6,0.2c0.2,0.1,0.5,0.3,0.8,0.5s0.6,0.3,1,0.5c0.4,0.1,0.9,0.2,1.4,0.2c0.8,0,1.5-0.2,2-0.6
				c0.5-0.4,0.7-1,0.7-1.7c0-0.4-0.1-0.8-0.3-1c-0.2-0.3-0.5-0.5-0.8-0.7c-0.3-0.2-0.7-0.3-1.2-0.5c-0.4-0.1-0.9-0.3-1.3-0.4
				c-0.5-0.1-0.9-0.3-1.3-0.5c-0.4-0.2-0.8-0.5-1.2-0.8s-0.6-0.7-0.8-1.2c-0.2-0.5-0.3-1.1-0.3-1.8c0-0.6,0.1-1.1,0.3-1.7
				c0.2-0.5,0.6-1,1-1.5c0.4-0.4,1-0.8,1.6-1c0.6-0.3,1.4-0.4,2.2-0.4c0.9,0,1.8,0.1,2.6,0.4c0.8,0.3,1.5,0.7,2,1.2L75.7,77.6z"/>
		</g>
	</g>
	<g>
		<path class="st4" d="M9.9,100.9h0.9c0.1,0,0.2,0,0.2,0.1c0.1,0,0.1,0.1,0.1,0.2l1.4,3.6c0,0.1,0.1,0.2,0.1,0.4
			c0,0.1,0.1,0.3,0.1,0.4c0.1-0.3,0.1-0.6,0.2-0.8l1.4-3.6c0-0.1,0.1-0.1,0.1-0.2c0.1-0.1,0.1-0.1,0.2-0.1h0.9l-2.4,5.9h-1
			L9.9,100.9z"/>
		<path class="st4" d="M17.5,101.4c0,0.1,0,0.2-0.1,0.2c0,0.1-0.1,0.1-0.1,0.2c-0.1,0.1-0.1,0.1-0.2,0.1c-0.1,0-0.2,0.1-0.3,0.1
			c-0.1,0-0.2,0-0.2-0.1c-0.1,0-0.1-0.1-0.2-0.1c-0.1-0.1-0.1-0.1-0.1-0.2c0-0.1-0.1-0.2-0.1-0.2c0-0.1,0-0.2,0.1-0.3
			c0-0.1,0.1-0.1,0.1-0.2c0.1-0.1,0.1-0.1,0.2-0.1c0.1,0,0.2-0.1,0.2-0.1c0.1,0,0.2,0,0.3,0.1c0.1,0,0.1,0.1,0.2,0.1
			s0.1,0.1,0.1,0.2C17.5,101.3,17.5,101.3,17.5,101.4z M17.4,102.7v4.2h-1v-4.2H17.4z"/>
		<path class="st4" d="M21,103.5C21,103.5,21,103.6,21,103.5c-0.1,0.1-0.2,0.1-0.2,0.1c0,0-0.1,0-0.2,0c-0.1,0-0.1-0.1-0.2-0.1
			c-0.1,0-0.2-0.1-0.3-0.1c-0.1,0-0.2,0-0.3,0c-0.2,0-0.4,0-0.5,0.1c-0.1,0.1-0.2,0.2-0.2,0.3c0,0.1,0,0.2,0.1,0.2
			c0.1,0.1,0.1,0.1,0.2,0.2c0.1,0,0.2,0.1,0.3,0.1c0.1,0,0.2,0.1,0.4,0.1c0.1,0,0.3,0.1,0.4,0.2c0.1,0.1,0.2,0.1,0.3,0.2
			c0.1,0.1,0.2,0.2,0.2,0.3s0.1,0.3,0.1,0.4c0,0.2,0,0.4-0.1,0.6c-0.1,0.2-0.2,0.3-0.3,0.4c-0.1,0.1-0.3,0.2-0.5,0.3
			c-0.2,0.1-0.4,0.1-0.7,0.1c-0.1,0-0.3,0-0.4,0c-0.1,0-0.3-0.1-0.4-0.1c-0.1,0-0.2-0.1-0.4-0.2c-0.1-0.1-0.2-0.1-0.3-0.2l0.2-0.4
			c0,0,0.1-0.1,0.1-0.1c0,0,0.1,0,0.2,0c0.1,0,0.1,0,0.2,0.1c0.1,0,0.1,0.1,0.2,0.1c0.1,0,0.2,0.1,0.3,0.1c0.1,0,0.2,0.1,0.4,0.1
			c0.1,0,0.2,0,0.3,0c0.1,0,0.2-0.1,0.2-0.1c0.1,0,0.1-0.1,0.1-0.2c0-0.1,0-0.1,0-0.2c0-0.1,0-0.2-0.1-0.2c-0.1-0.1-0.1-0.1-0.2-0.2
			c-0.1,0-0.2-0.1-0.3-0.1c-0.1,0-0.3-0.1-0.4-0.1c-0.1,0-0.3-0.1-0.4-0.2c-0.1-0.1-0.2-0.1-0.3-0.2c-0.1-0.1-0.2-0.2-0.2-0.3
			c-0.1-0.1-0.1-0.3-0.1-0.5c0-0.2,0-0.3,0.1-0.5c0.1-0.2,0.2-0.3,0.3-0.4c0.1-0.1,0.3-0.2,0.5-0.3c0.2-0.1,0.4-0.1,0.7-0.1
			c0.3,0,0.6,0,0.8,0.1c0.2,0.1,0.4,0.2,0.6,0.4L21,103.5z"/>
		<path class="st4" d="M23.5,106.9c-0.4,0-0.6-0.1-0.8-0.3s-0.3-0.5-0.3-0.9v-2.4h-0.4c-0.1,0-0.1,0-0.1-0.1c0,0-0.1-0.1-0.1-0.2
			v-0.4l0.7-0.1l0.2-1.2c0-0.1,0-0.1,0.1-0.1c0,0,0.1,0,0.1,0h0.5v1.3h1.1v0.7h-1.1v2.3c0,0.1,0,0.2,0.1,0.3
			c0.1,0.1,0.2,0.1,0.3,0.1c0.1,0,0.1,0,0.2,0c0,0,0.1,0,0.1,0c0,0,0.1,0,0.1,0c0,0,0,0,0.1,0c0,0,0.1,0,0.1,0c0,0,0,0,0.1,0.1
			l0.3,0.5c-0.1,0.1-0.3,0.2-0.5,0.3C23.9,106.9,23.7,106.9,23.5,106.9z"/>
		<path class="st4" d="M27.1,102.6c0.3,0,0.6,0.1,0.9,0.2c0.3,0.1,0.5,0.2,0.7,0.4c0.2,0.2,0.3,0.4,0.4,0.7c0.1,0.3,0.1,0.6,0.1,0.9
			c0,0.3,0,0.6-0.1,0.9c-0.1,0.3-0.2,0.5-0.4,0.7s-0.4,0.3-0.7,0.4c-0.3,0.1-0.5,0.2-0.9,0.2c-0.3,0-0.6-0.1-0.9-0.2
			c-0.3-0.1-0.5-0.2-0.7-0.4c-0.2-0.2-0.3-0.4-0.4-0.7c-0.1-0.3-0.1-0.6-0.1-0.9c0-0.3,0-0.6,0.1-0.9c0.1-0.3,0.2-0.5,0.4-0.7
			c0.2-0.2,0.4-0.3,0.7-0.4C26.5,102.6,26.8,102.6,27.1,102.6z M27.1,106.2c0.4,0,0.6-0.1,0.8-0.4c0.2-0.2,0.3-0.6,0.3-1
			s-0.1-0.8-0.3-1c-0.2-0.2-0.4-0.4-0.8-0.4c-0.4,0-0.6,0.1-0.8,0.4c-0.2,0.2-0.3,0.6-0.3,1s0.1,0.8,0.3,1
			C26.5,106,26.7,106.2,27.1,106.2z"/>
		<path class="st4" d="M30,106.9v-4.2h0.6c0.1,0,0.2,0,0.2,0.1c0,0,0.1,0.1,0.1,0.2l0.1,0.5c0.2-0.3,0.3-0.5,0.5-0.6
			c0.2-0.2,0.4-0.2,0.7-0.2c0.2,0,0.4,0,0.5,0.1l-0.1,0.8c0,0,0,0.1-0.1,0.1c0,0-0.1,0-0.1,0c0,0-0.1,0-0.2,0s-0.2,0-0.3,0
			c-0.2,0-0.4,0.1-0.5,0.2c-0.2,0.1-0.3,0.3-0.4,0.5v2.6H30z"/>
		<path class="st4" d="M35.8,103.5C35.8,103.5,35.8,103.6,35.8,103.5c-0.1,0.1-0.2,0.1-0.2,0.1c0,0-0.1,0-0.2,0
			c-0.1,0-0.1-0.1-0.2-0.1c-0.1,0-0.2-0.1-0.3-0.1c-0.1,0-0.2,0-0.3,0c-0.2,0-0.4,0-0.5,0.1c-0.1,0.1-0.2,0.2-0.2,0.3
			c0,0.1,0,0.2,0.1,0.2c0.1,0.1,0.1,0.1,0.2,0.2c0.1,0,0.2,0.1,0.3,0.1c0.1,0,0.2,0.1,0.4,0.1c0.1,0,0.3,0.1,0.4,0.2
			c0.1,0.1,0.2,0.1,0.3,0.2c0.1,0.1,0.2,0.2,0.2,0.3s0.1,0.3,0.1,0.4c0,0.2,0,0.4-0.1,0.6c-0.1,0.2-0.2,0.3-0.3,0.4
			c-0.1,0.1-0.3,0.2-0.5,0.3c-0.2,0.1-0.4,0.1-0.7,0.1c-0.1,0-0.3,0-0.4,0c-0.1,0-0.3-0.1-0.4-0.1c-0.1,0-0.2-0.1-0.4-0.2
			c-0.1-0.1-0.2-0.1-0.3-0.2l0.2-0.4c0,0,0.1-0.1,0.1-0.1c0,0,0.1,0,0.2,0c0.1,0,0.1,0,0.2,0.1c0.1,0,0.1,0.1,0.2,0.1
			c0.1,0,0.2,0.1,0.3,0.1c0.1,0,0.2,0.1,0.4,0.1c0.1,0,0.2,0,0.3,0c0.1,0,0.2-0.1,0.2-0.1c0.1,0,0.1-0.1,0.1-0.2c0-0.1,0-0.1,0-0.2
			c0-0.1,0-0.2-0.1-0.2c-0.1-0.1-0.1-0.1-0.2-0.2c-0.1,0-0.2-0.1-0.3-0.1c-0.1,0-0.3-0.1-0.4-0.1c-0.1,0-0.3-0.1-0.4-0.2
			c-0.1-0.1-0.2-0.1-0.3-0.2c-0.1-0.1-0.2-0.2-0.2-0.3c-0.1-0.1-0.1-0.3-0.1-0.5c0-0.2,0-0.3,0.1-0.5c0.1-0.2,0.2-0.3,0.3-0.4
			c0.1-0.1,0.3-0.2,0.5-0.3c0.2-0.1,0.4-0.1,0.7-0.1c0.3,0,0.6,0,0.8,0.1c0.2,0.1,0.4,0.2,0.6,0.4L35.8,103.5z"/>
		<path class="st4" d="M39.8,106.9h-1.1v-5.9h1.1V106.9z"/>
		<path class="st4" d="M41.1,106.9v-4.2h0.6c0.1,0,0.2,0.1,0.3,0.2l0.1,0.3c0.1-0.1,0.2-0.2,0.3-0.2c0.1-0.1,0.2-0.1,0.3-0.2
			c0.1-0.1,0.2-0.1,0.3-0.1c0.1,0,0.3,0,0.4,0c0.2,0,0.4,0,0.6,0.1c0.2,0.1,0.3,0.2,0.4,0.3c0.1,0.1,0.2,0.3,0.3,0.5
			c0.1,0.2,0.1,0.4,0.1,0.6v2.7h-1v-2.7c0-0.3-0.1-0.5-0.2-0.6c-0.1-0.1-0.3-0.2-0.5-0.2c-0.2,0-0.3,0-0.5,0.1
			c-0.2,0.1-0.3,0.2-0.4,0.3v3H41.1z"/>
		<path class="st4" d="M45.9,106.9v-3.5l-0.4-0.1c-0.1,0-0.1,0-0.2-0.1c0,0-0.1-0.1-0.1-0.2v-0.4h0.6v-0.3c0-0.2,0-0.5,0.1-0.6
			c0.1-0.2,0.2-0.4,0.3-0.5c0.1-0.1,0.3-0.2,0.5-0.3c0.2-0.1,0.4-0.1,0.7-0.1c0.2,0,0.4,0,0.5,0.1l0,0.5c0,0.1,0,0.1-0.1,0.1
			c-0.1,0-0.1,0-0.2,0c-0.1,0-0.2,0-0.3,0c-0.1,0-0.2,0.1-0.2,0.1S47,101.9,47,102c0,0.1-0.1,0.2-0.1,0.4v0.3H48v0.7h-1.1v3.5H45.9z
			"/>
		<path class="st4" d="M50.4,102.6c0.3,0,0.6,0.1,0.9,0.2c0.3,0.1,0.5,0.2,0.7,0.4c0.2,0.2,0.3,0.4,0.4,0.7c0.1,0.3,0.1,0.6,0.1,0.9
			c0,0.3,0,0.6-0.1,0.9c-0.1,0.3-0.2,0.5-0.4,0.7c-0.2,0.2-0.4,0.3-0.7,0.4c-0.3,0.1-0.5,0.2-0.9,0.2c-0.3,0-0.6-0.1-0.9-0.2
			c-0.3-0.1-0.5-0.2-0.7-0.4s-0.3-0.4-0.4-0.7c-0.1-0.3-0.1-0.6-0.1-0.9c0-0.3,0-0.6,0.1-0.9c0.1-0.3,0.2-0.5,0.4-0.7
			c0.2-0.2,0.4-0.3,0.7-0.4C49.8,102.6,50.1,102.6,50.4,102.6z M50.4,106.2c0.4,0,0.6-0.1,0.8-0.4c0.2-0.2,0.3-0.6,0.3-1
			s-0.1-0.8-0.3-1c-0.2-0.2-0.4-0.4-0.8-0.4c-0.4,0-0.6,0.1-0.8,0.4c-0.2,0.2-0.3,0.6-0.3,1s0.1,0.8,0.3,1
			C49.8,106,50.1,106.2,50.4,106.2z"/>
		<path class="st4" d="M53.3,106.9v-4.2h0.6c0.1,0,0.2,0,0.2,0.1c0,0,0.1,0.1,0.1,0.2l0.1,0.5c0.2-0.3,0.3-0.5,0.5-0.6
			c0.2-0.2,0.4-0.2,0.7-0.2c0.2,0,0.4,0,0.5,0.1l-0.1,0.8c0,0,0,0.1-0.1,0.1c0,0-0.1,0-0.1,0c0,0-0.1,0-0.2,0c-0.1,0-0.2,0-0.3,0
			c-0.2,0-0.4,0.1-0.5,0.2c-0.2,0.1-0.3,0.3-0.4,0.5v2.6H53.3z"/>
		<path class="st4" d="M56.6,106.9v-4.2h0.6c0.1,0,0.2,0.1,0.3,0.2l0.1,0.3c0.1-0.1,0.2-0.2,0.2-0.2c0.1-0.1,0.2-0.1,0.3-0.2
			c0.1,0,0.2-0.1,0.3-0.1c0.1,0,0.2,0,0.3,0c0.3,0,0.5,0.1,0.7,0.2c0.2,0.1,0.3,0.3,0.4,0.6c0.1-0.1,0.1-0.3,0.2-0.4
			s0.2-0.2,0.3-0.2c0.1-0.1,0.2-0.1,0.4-0.1s0.3,0,0.4,0c0.2,0,0.4,0,0.6,0.1c0.2,0.1,0.3,0.2,0.5,0.3c0.1,0.1,0.2,0.3,0.3,0.5
			c0.1,0.2,0.1,0.4,0.1,0.7v2.7h-1v-2.7c0-0.3-0.1-0.5-0.2-0.6c-0.1-0.1-0.3-0.2-0.5-0.2c-0.1,0-0.2,0-0.3,0.1
			c-0.1,0-0.2,0.1-0.2,0.2c-0.1,0.1-0.1,0.2-0.2,0.3c0,0.1-0.1,0.2-0.1,0.3v2.7h-1v-2.7c0-0.3-0.1-0.5-0.2-0.6
			c-0.1-0.1-0.3-0.2-0.5-0.2c-0.1,0-0.3,0-0.4,0.1c-0.1,0.1-0.2,0.2-0.4,0.3v3.1H56.6z"/>
		<path class="st4" d="M66.9,106.9h-0.5c-0.1,0-0.2,0-0.2,0c-0.1,0-0.1-0.1-0.1-0.2l-0.1-0.3c-0.1,0.1-0.2,0.2-0.3,0.3
			s-0.2,0.1-0.3,0.2c-0.1,0-0.2,0.1-0.3,0.1c-0.1,0-0.3,0-0.4,0c-0.2,0-0.3,0-0.5-0.1c-0.2,0-0.3-0.1-0.4-0.2s-0.2-0.2-0.3-0.4
			c-0.1-0.1-0.1-0.3-0.1-0.5c0-0.2,0-0.3,0.1-0.5c0.1-0.2,0.2-0.3,0.4-0.4c0.2-0.1,0.5-0.2,0.8-0.3c0.3-0.1,0.7-0.1,1.2-0.1v-0.2
			c0-0.3-0.1-0.5-0.2-0.6c-0.1-0.1-0.3-0.2-0.5-0.2c-0.2,0-0.3,0-0.4,0.1c-0.1,0-0.2,0.1-0.3,0.1c-0.1,0-0.2,0.1-0.2,0.1
			c-0.1,0-0.1,0.1-0.2,0.1c-0.1,0-0.1,0-0.2-0.1c0,0-0.1-0.1-0.1-0.1l-0.2-0.3c0.5-0.4,1.1-0.7,1.8-0.7c0.2,0,0.5,0,0.7,0.1
			c0.2,0.1,0.4,0.2,0.5,0.3c0.1,0.1,0.2,0.3,0.3,0.5c0.1,0.2,0.1,0.4,0.1,0.7V106.9z M64.9,106.2c0.1,0,0.2,0,0.3,0
			c0.1,0,0.2,0,0.2-0.1c0.1,0,0.2-0.1,0.2-0.1c0.1-0.1,0.1-0.1,0.2-0.2v-0.7c-0.3,0-0.5,0-0.7,0.1s-0.4,0.1-0.5,0.1
			c-0.1,0.1-0.2,0.1-0.3,0.2c-0.1,0.1-0.1,0.2-0.1,0.3c0,0.2,0.1,0.3,0.2,0.4C64.6,106.2,64.7,106.2,64.9,106.2z"/>
		<path class="st4" d="M69.3,106.9c-0.4,0-0.6-0.1-0.8-0.3s-0.3-0.5-0.3-0.9v-2.4h-0.4c-0.1,0-0.1,0-0.1-0.1c0,0-0.1-0.1-0.1-0.2
			v-0.4l0.7-0.1l0.2-1.2c0-0.1,0-0.1,0.1-0.1c0,0,0.1,0,0.1,0h0.5v1.3h1.1v0.7h-1.1v2.3c0,0.1,0,0.2,0.1,0.3
			c0.1,0.1,0.2,0.1,0.3,0.1c0.1,0,0.1,0,0.2,0c0,0,0.1,0,0.1,0c0,0,0.1,0,0.1,0c0,0,0,0,0.1,0c0,0,0.1,0,0.1,0c0,0,0,0,0.1,0.1
			l0.3,0.5c-0.1,0.1-0.3,0.2-0.5,0.3C69.7,106.9,69.5,106.9,69.3,106.9z"/>
		<path class="st4" d="M72.3,101.4c0,0.1,0,0.2-0.1,0.2c0,0.1-0.1,0.1-0.1,0.2c-0.1,0.1-0.1,0.1-0.2,0.1c-0.1,0-0.2,0.1-0.3,0.1
			c-0.1,0-0.2,0-0.2-0.1c-0.1,0-0.1-0.1-0.2-0.1c-0.1-0.1-0.1-0.1-0.1-0.2c0-0.1-0.1-0.2-0.1-0.2c0-0.1,0-0.2,0.1-0.3
			c0-0.1,0.1-0.1,0.1-0.2c0.1-0.1,0.1-0.1,0.2-0.1c0.1,0,0.2-0.1,0.2-0.1c0.1,0,0.2,0,0.3,0.1c0.1,0,0.1,0.1,0.2,0.1
			s0.1,0.1,0.1,0.2C72.3,101.3,72.3,101.3,72.3,101.4z M72.1,102.7v4.2h-1v-4.2H72.1z"/>
		<path class="st4" d="M75.1,102.6c0.3,0,0.6,0.1,0.9,0.2c0.3,0.1,0.5,0.2,0.7,0.4c0.2,0.2,0.3,0.4,0.4,0.7c0.1,0.3,0.1,0.6,0.1,0.9
			c0,0.3,0,0.6-0.1,0.9c-0.1,0.3-0.2,0.5-0.4,0.7c-0.2,0.2-0.4,0.3-0.7,0.4c-0.3,0.1-0.5,0.2-0.9,0.2c-0.3,0-0.6-0.1-0.9-0.2
			c-0.3-0.1-0.5-0.2-0.7-0.4c-0.2-0.2-0.3-0.4-0.4-0.7c-0.1-0.3-0.2-0.6-0.2-0.9c0-0.3,0-0.6,0.2-0.9c0.1-0.3,0.2-0.5,0.4-0.7
			c0.2-0.2,0.4-0.3,0.7-0.4C74.5,102.6,74.8,102.6,75.1,102.6z M75.1,106.2c0.4,0,0.6-0.1,0.8-0.4c0.2-0.2,0.3-0.6,0.3-1
			s-0.1-0.8-0.3-1c-0.2-0.2-0.4-0.4-0.8-0.4c-0.4,0-0.6,0.1-0.8,0.4c-0.2,0.2-0.3,0.6-0.3,1s0.1,0.8,0.3,1
			C74.5,106,74.7,106.2,75.1,106.2z"/>
		<path class="st4" d="M77.9,106.9v-4.2h0.6c0.1,0,0.2,0.1,0.3,0.2l0.1,0.3c0.1-0.1,0.2-0.2,0.3-0.2c0.1-0.1,0.2-0.1,0.3-0.2
			c0.1-0.1,0.2-0.1,0.3-0.1c0.1,0,0.3,0,0.4,0c0.2,0,0.4,0,0.6,0.1c0.2,0.1,0.3,0.2,0.4,0.3c0.1,0.1,0.2,0.3,0.3,0.5
			c0.1,0.2,0.1,0.4,0.1,0.6v2.7h-1v-2.7c0-0.3-0.1-0.5-0.2-0.6c-0.1-0.1-0.3-0.2-0.5-0.2c-0.2,0-0.3,0-0.5,0.1
			c-0.2,0.1-0.3,0.2-0.4,0.3v3H77.9z"/>
		<path class="st4" d="M87.4,102c0,0.1-0.1,0.1-0.1,0.1c0,0-0.1,0-0.1,0s-0.1,0-0.2-0.1c-0.1,0-0.1-0.1-0.2-0.1
			c-0.1-0.1-0.2-0.1-0.3-0.1c-0.1,0-0.3-0.1-0.4-0.1c-0.2,0-0.3,0-0.4,0.1c-0.1,0-0.2,0.1-0.3,0.2s-0.1,0.1-0.2,0.2
			c0,0.1-0.1,0.2-0.1,0.3c0,0.1,0,0.3,0.1,0.3c0.1,0.1,0.2,0.2,0.3,0.2c0.1,0.1,0.3,0.1,0.4,0.2c0.2,0.1,0.3,0.1,0.5,0.2
			c0.2,0.1,0.3,0.1,0.5,0.2c0.2,0.1,0.3,0.2,0.4,0.3c0.1,0.1,0.2,0.3,0.3,0.4c0.1,0.2,0.1,0.4,0.1,0.6c0,0.3,0,0.5-0.1,0.8
			c-0.1,0.2-0.2,0.4-0.4,0.6c-0.2,0.2-0.4,0.3-0.6,0.4s-0.5,0.2-0.9,0.2c-0.2,0-0.4,0-0.6-0.1c-0.2,0-0.4-0.1-0.5-0.2
			c-0.2-0.1-0.3-0.2-0.5-0.2s-0.3-0.2-0.4-0.3l0.3-0.5c0,0,0.1-0.1,0.1-0.1c0,0,0.1,0,0.1,0c0.1,0,0.1,0,0.2,0.1
			c0.1,0.1,0.2,0.1,0.3,0.2c0.1,0.1,0.2,0.1,0.4,0.2c0.1,0.1,0.3,0.1,0.5,0.1c0.3,0,0.6-0.1,0.7-0.2c0.2-0.1,0.3-0.4,0.3-0.6
			c0-0.2,0-0.3-0.1-0.4c-0.1-0.1-0.2-0.2-0.3-0.2c-0.1-0.1-0.3-0.1-0.4-0.2c-0.2,0-0.3-0.1-0.5-0.2c-0.2-0.1-0.3-0.1-0.5-0.2
			c-0.2-0.1-0.3-0.2-0.4-0.3c-0.1-0.1-0.2-0.3-0.3-0.5c-0.1-0.2-0.1-0.4-0.1-0.7c0-0.2,0-0.4,0.1-0.6c0.1-0.2,0.2-0.4,0.4-0.5
			c0.2-0.2,0.4-0.3,0.6-0.4c0.2-0.1,0.5-0.1,0.8-0.1c0.4,0,0.7,0.1,1,0.2c0.3,0.1,0.5,0.3,0.8,0.5L87.4,102z"/>
		<path class="st4" d="M90.1,108c0,0.1-0.1,0.1-0.1,0.2c0,0-0.1,0.1-0.2,0.1H89l0.8-1.7l-1.7-3.9H89c0.1,0,0.1,0,0.2,0.1
			c0,0,0.1,0.1,0.1,0.1l0.9,2.2c0,0.1,0.1,0.1,0.1,0.2c0,0.1,0,0.2,0.1,0.2c0-0.1,0-0.2,0.1-0.2c0-0.1,0.1-0.1,0.1-0.2l0.8-2.2
			c0-0.1,0.1-0.1,0.1-0.1c0.1,0,0.1-0.1,0.2-0.1h0.8L90.1,108z"/>
		<path class="st4" d="M95.5,103.5C95.5,103.5,95.4,103.6,95.5,103.5c-0.1,0.1-0.2,0.1-0.2,0.1c0,0-0.1,0-0.2,0
			c-0.1,0-0.1-0.1-0.2-0.1c-0.1,0-0.2-0.1-0.3-0.1c-0.1,0-0.2,0-0.3,0c-0.2,0-0.4,0-0.5,0.1c-0.1,0.1-0.2,0.2-0.2,0.3
			c0,0.1,0,0.2,0.1,0.2c0.1,0.1,0.1,0.1,0.2,0.2c0.1,0,0.2,0.1,0.3,0.1s0.2,0.1,0.4,0.1c0.1,0,0.3,0.1,0.4,0.2s0.2,0.1,0.3,0.2
			c0.1,0.1,0.2,0.2,0.2,0.3c0.1,0.1,0.1,0.3,0.1,0.4c0,0.2,0,0.4-0.1,0.6c-0.1,0.2-0.2,0.3-0.3,0.4s-0.3,0.2-0.5,0.3
			c-0.2,0.1-0.4,0.1-0.7,0.1c-0.1,0-0.3,0-0.4,0c-0.1,0-0.3-0.1-0.4-0.1c-0.1,0-0.2-0.1-0.4-0.2c-0.1-0.1-0.2-0.1-0.3-0.2l0.2-0.4
			c0,0,0.1-0.1,0.1-0.1c0,0,0.1,0,0.2,0s0.1,0,0.2,0.1c0.1,0,0.1,0.1,0.2,0.1c0.1,0,0.2,0.1,0.3,0.1c0.1,0,0.2,0.1,0.4,0.1
			c0.1,0,0.2,0,0.3,0c0.1,0,0.2-0.1,0.2-0.1c0.1,0,0.1-0.1,0.1-0.2c0-0.1,0-0.1,0-0.2c0-0.1,0-0.2-0.1-0.2c-0.1-0.1-0.1-0.1-0.2-0.2
			c-0.1,0-0.2-0.1-0.3-0.1c-0.1,0-0.3-0.1-0.4-0.1c-0.1,0-0.3-0.1-0.4-0.2c-0.1-0.1-0.2-0.1-0.3-0.2c-0.1-0.1-0.2-0.2-0.2-0.3
			c-0.1-0.1-0.1-0.3-0.1-0.5c0-0.2,0-0.3,0.1-0.5c0.1-0.2,0.2-0.3,0.3-0.4c0.1-0.1,0.3-0.2,0.5-0.3c0.2-0.1,0.4-0.1,0.7-0.1
			c0.3,0,0.6,0,0.8,0.1c0.2,0.1,0.4,0.2,0.6,0.4L95.5,103.5z"/>
		<path class="st4" d="M98,106.9c-0.4,0-0.6-0.1-0.8-0.3s-0.3-0.5-0.3-0.9v-2.4h-0.4c-0.1,0-0.1,0-0.1-0.1c0,0-0.1-0.1-0.1-0.2v-0.4
			l0.7-0.1l0.2-1.2c0-0.1,0-0.1,0.1-0.1c0,0,0.1,0,0.1,0h0.5v1.3H99v0.7h-1.1v2.3c0,0.1,0,0.2,0.1,0.3c0.1,0.1,0.2,0.1,0.3,0.1
			c0.1,0,0.1,0,0.2,0c0,0,0.1,0,0.1,0c0,0,0.1,0,0.1,0c0,0,0,0,0.1,0c0,0,0.1,0,0.1,0c0,0,0,0,0.1,0.1l0.3,0.5
			c-0.1,0.1-0.3,0.2-0.5,0.3C98.4,106.9,98.2,106.9,98,106.9z"/>
		<path class="st4" d="M101.5,102.6c0.3,0,0.5,0,0.7,0.1c0.2,0.1,0.4,0.2,0.6,0.4c0.2,0.2,0.3,0.4,0.4,0.6c0.1,0.2,0.1,0.5,0.1,0.8
			c0,0.1,0,0.1,0,0.2c0,0.1,0,0.1,0,0.1c0,0,0,0-0.1,0.1c0,0-0.1,0-0.1,0h-2.6c0,0.4,0.1,0.8,0.3,1c0.2,0.2,0.5,0.3,0.8,0.3
			c0.2,0,0.3,0,0.4-0.1c0.1,0,0.2-0.1,0.3-0.1c0.1,0,0.2-0.1,0.2-0.1c0.1,0,0.1-0.1,0.2-0.1c0,0,0.1,0,0.1,0c0,0,0.1,0,0.1,0.1
			l0.3,0.4c-0.1,0.1-0.2,0.2-0.4,0.3c-0.1,0.1-0.3,0.2-0.4,0.2s-0.3,0.1-0.5,0.1c-0.2,0-0.3,0-0.5,0c-0.3,0-0.6,0-0.8-0.1
			c-0.3-0.1-0.5-0.2-0.7-0.4s-0.3-0.4-0.4-0.7c-0.1-0.3-0.2-0.6-0.2-1c0-0.3,0-0.6,0.1-0.8c0.1-0.3,0.2-0.5,0.4-0.7
			c0.2-0.2,0.4-0.3,0.6-0.4C100.9,102.6,101.2,102.6,101.5,102.6z M101.5,103.3c-0.3,0-0.5,0.1-0.7,0.3c-0.2,0.2-0.3,0.4-0.3,0.7
			h1.9c0-0.1,0-0.3-0.1-0.4c0-0.1-0.1-0.2-0.2-0.3c-0.1-0.1-0.2-0.2-0.3-0.2C101.8,103.3,101.7,103.3,101.5,103.3z"/>
		<path class="st4" d="M104.2,106.9v-4.2h0.6c0.1,0,0.2,0.1,0.3,0.2l0.1,0.3c0.1-0.1,0.2-0.2,0.2-0.2c0.1-0.1,0.2-0.1,0.3-0.2
			c0.1,0,0.2-0.1,0.3-0.1c0.1,0,0.2,0,0.3,0c0.3,0,0.5,0.1,0.7,0.2c0.2,0.1,0.3,0.3,0.4,0.6c0.1-0.1,0.1-0.3,0.2-0.4
			c0.1-0.1,0.2-0.2,0.3-0.2c0.1-0.1,0.2-0.1,0.4-0.1c0.1,0,0.3,0,0.4,0c0.2,0,0.4,0,0.6,0.1c0.2,0.1,0.3,0.2,0.5,0.3
			c0.1,0.1,0.2,0.3,0.3,0.5s0.1,0.4,0.1,0.7v2.7h-1v-2.7c0-0.3-0.1-0.5-0.2-0.6c-0.1-0.1-0.3-0.2-0.5-0.2c-0.1,0-0.2,0-0.3,0.1
			c-0.1,0-0.2,0.1-0.2,0.2c-0.1,0.1-0.1,0.2-0.2,0.3c0,0.1-0.1,0.2-0.1,0.3v2.7h-1v-2.7c0-0.3-0.1-0.5-0.2-0.6
			c-0.1-0.1-0.3-0.2-0.5-0.2c-0.1,0-0.3,0-0.4,0.1c-0.1,0.1-0.2,0.2-0.4,0.3v3.1H104.2z"/>
	</g>
</g>
<path class="st1" d="M96.4,41.1v2.1c0,1.5-1.2,2.8-2.8,2.8H82.1c-1.5,0-2.8-1.2-2.8-2.8v-2.1H96.4z"/>
</svg>
